<svg width="2287" height="624" viewBox="0 0 2287 624" fill="none" xmlns="http://www.w3.org/2000/svg">
<path d="M948.148 352.02C950.868 290.02 1016.65 252.52 1066.15 253.52C1115.65 254.52 1187.15 270.52 1183.15 374.52C1179.15 478.519 1075.15 512.019 1005.15 506.52C935.148 501.02 888.648 478.52 879.148 411.52L864.648 310.52L799.148 490.02C772.857 491.915 761.946 483.12 749.148 449.02C724.562 379.261 700.648 310.02 696.648 310.52L675.648 490.02H639.648L671.648 254.52C705.954 255.202 719.148 269.02 728.148 295.02L782.648 442.52L836.648 291.52C846.648 265.02 860.462 257.859 892.148 254.52L909.648 389.52C909.648 389.52 911.992 430.655 935.148 455.52C958.305 480.384 1045.74 494.444 1101.15 455.52C1156.52 416.621 1149.16 374.576 1149.15 374.52C1149.15 374.52 1153.82 283.02 1064.15 283.02C974.477 283.02 954.148 425.519 1047.15 462.02H1007.65C983.648 462.02 965.148 437.019 964.148 435.02C963.148 433.019 945.429 414.019 948.148 352.02ZM1849.65 298.02C1849.65 274.019 1866.15 250.52 1902.15 255.02C1902.1 255.055 1880.65 270.053 1880.65 298.02V491.02C1880.65 491.02 1848.15 491.019 1828.65 462.52C1809.16 434.037 1723.75 309.668 1723.65 309.52V435.52C1723.65 469.519 1705.15 489.02 1674.15 491.02C1643.15 493.019 1623.65 476.715 1614.65 454.52C1605.65 432.338 1549.72 293.696 1549.65 293.52L1504.65 404.02C1504.65 404.02 1516.15 398.52 1541.15 399.52C1566.12 400.518 1581.11 395.532 1581.15 395.52C1581.14 395.616 1579.07 428.02 1529.15 428.02C1502.15 428.02 1493.65 433.52 1485.15 452.52L1469.65 490.52H1434.65L1529.65 255.02C1559.74 256.219 1571.5 263.52 1584.15 293.52C1596.8 323.52 1647.15 444.52 1648.65 448.02C1650.15 451.52 1654.65 464.019 1671.65 463.52C1688.65 463.02 1691.65 441.02 1691.65 435.52V255.02C1717.15 255.019 1729.65 262.52 1744.15 283.52C1758.65 304.52 1849.65 435.52 1849.65 435.52V298.02ZM1430.15 254.52C1415.7 266.257 1411.65 275.52 1411.65 291.52V491.02C1385.77 491.335 1374.15 485.02 1360.65 465.02L1253.15 307.02V448.52C1253.15 468.019 1241.15 490.52 1198.65 490.52C1214.16 478.497 1220.15 470.019 1220.15 448.52V255.02C1248.7 254.903 1261.15 265.52 1273.15 282.52L1377.15 432.52L1379.15 295.02C1379.15 269.52 1399.65 254.52 1430.15 254.52Z" fill="#990000"/>
<path d="M2224.15 491.5H2190.65L2162.15 432H2035.15L2008.65 491.5H1973.65L2083.15 257.5H2116.65L2224.15 491.5ZM2047.15 404.5H2150.15L2099.15 290L2047.15 404.5Z" fill="#EB8220"/>
<rect x="2252.65" y="256.5" width="34" height="235" fill="#EB8220"/>
<path d="M343.26 440.5C230.76 501.5 178.26 547 178.26 623.5C391.76 585 488.26 440.5 453.76 231.5C453.76 231.5 455.76 379.5 343.26 440.5Z" fill="url(#paint0_linear_23_2)"/>
<path d="M320.26 40C301.26 102 171.26 115 138.26 195.5C105.26 276 147.76 302 130.26 390C274.26 230 328.26 264.5 320.26 40Z" fill="url(#paint1_linear_23_2)"/>
<path d="M327.26 434C161.112 521 164.112 586 164.112 620C46.6122 465.5 167.26 363.58 258.26 296C349.26 228.42 357.26 89.5 336.26 0C386.76 47.5 522.613 331.707 327.26 434Z" fill="url(#paint2_linear_23_2)"/>
<path d="M141.26 170.5C-47.6878 242.921 -47.9247 510.36 145.612 613.5C68.6123 505 106.281 456.5 113.76 395C124.422 307.318 65.26 254 141.26 170.5Z" fill="url(#paint3_linear_23_2)"/>
<defs>
<linearGradient id="paint0_linear_23_2" x1="467.893" y1="403.147" x2="280.841" y2="679.965" gradientUnits="userSpaceOnUse">
<stop stop-color="#EB8220"/>
<stop offset="1" stop-color="#D64126"/>
</linearGradient>
<linearGradient id="paint1_linear_23_2" x1="326.079" y1="193.256" x2="147.797" y2="398.116" gradientUnits="userSpaceOnUse">
<stop stop-color="#EB8220"/>
<stop offset="1" stop-color="#D64126"/>
</linearGradient>
<linearGradient id="paint2_linear_23_2" x1="410.204" y1="241.5" x2="103.634" y2="635.27" gradientUnits="userSpaceOnUse">
<stop stop-color="#990000"/>
<stop offset="1" stop-color="#4E0D11"/>
</linearGradient>
<linearGradient id="paint3_linear_23_2" x1="130.566" y1="312.718" x2="-50.5579" y2="455.657" gradientUnits="userSpaceOnUse">
<stop stop-color="#990000"/>
<stop offset="1" stop-color="#4E0D11"/>
</linearGradient>
</defs>
</svg>
